<svg xmlns="http://www.w3.org/2000/svg" viewBox="0 0 1006.15 122.46"><defs><style>.cls-1,.cls-3{fill:#3b8ede;}.cls-1{fill-rule:evenodd;}.cls-2{fill:#fff;}.cls-4{font-size:16px;font-family:Montserrat-Regular, Montserrat;}</style></defs><g id="Layer_2" data-name="Layer 2"><g id="icon"><path class="cls-1" d="M742.1,0c-2.82,31.06-29.85,52.17-34.28,73.1-2.62,12.36-1.22,24.5,5,32.9s19.83,13.64,29.31,13.64,23.2-5.23,29.4-13.64,8.27-20.89,4.88-32.9C769.72,49.54,746.77,31,742.1,0Z"/></g><g id="text"><path class="cls-2" d="M0,70.32C0,41.69,21.92,21,51.37,21,67,21,80.42,26.62,89.32,37L77.81,47.85A33.66,33.66,0,0,0,52.2,36.62c-19.87,0-34.25,14-34.25,33.7S32.33,104,52.2,104A33.32,33.32,0,0,0,77.81,92.65l11.51,11c-8.9,10.41-22.33,16-38.08,16C21.92,119.64,0,99,0,70.32Z"/><path class="cls-2" d="M246.4,84.43v33.84H228.59V84.7L190.92,22.37h19L238,69.09,266.4,22.37h17.53Z"/><path class="cls-2" d="M312.83,75.53h20.82c15.62,0,23.7-7,23.7-19.05s-8.08-19-23.7-19H295V22.37h39.46c25.2,0,40.82,12.88,40.82,34.11s-15.62,34.11-40.82,34.11H312.83v27.68H295V75.53Z"/><path class="cls-2" d="M415.33,37.44H383.55V22.37h81.37V37.44H433.14v80.83H415.33Z"/><path class="cls-2" d="M473,70.32C473,42,495,21,524.68,21s51.65,20.83,51.65,49.32-21.92,49.32-51.65,49.32S473,98.68,473,70.32Zm85.35,0c0-19.59-14.39-33.7-33.71-33.7S491,50.73,491,70.32s14.39,33.7,33.7,33.7S558.39,89.91,558.39,70.32Z"/><path class="cls-3" d="M597.2,70.32C597.2,41.69,619.12,21,648.57,21c15.62,0,29,5.62,37.95,16L675,47.85A33.66,33.66,0,0,0,649.4,36.62c-19.87,0-34.25,14-34.25,33.7S629.53,104,649.4,104A33.32,33.32,0,0,0,675,92.65l11.51,11c-8.9,10.41-22.33,16-38.08,16C619.12,119.64,597.2,99,597.2,70.32Z"/><path class="cls-3" d="M819.57,75.66h20.82c15.62,0,23.7-7.12,23.7-19.18s-8.08-19-23.7-19H801.76V22.37h39.45c25.21,0,40.82,12.88,40.82,34.11,0,14.52-7.39,25.21-20.41,30.28l22.06,31.51H864.5L844.91,90.18a32.69,32.69,0,0,1-3.7.14H819.57v28H801.76V75.66Z"/><path class="cls-2" d="M120.15,75.66H141c15.62,0,23.7-7.12,23.7-19.18s-8.08-19-23.7-19H102.34V22.37h39.45c25.21,0,40.83,12.88,40.83,34.11,0,14.52-7.4,25.21-20.42,30.28l22.06,31.51H165.08L145.49,90.18a32.69,32.69,0,0,1-3.7.14H120.15v28H102.34V75.66Z"/><path class="cls-3" d="M972.55,103.34v14.93H900.63V22.37h70V37.3H918.44V62.24h46.3V76.9h-46.3v26.44Z"/><text class="cls-4" transform="translate(981.69 118.27)">TM</text></g></g></svg>