<svg id="Layer_1" data-name="Layer 1" xmlns="http://www.w3.org/2000/svg" viewBox="0 0 83.73 133.97"><defs><style>.cls-1{fill:#fff;}</style></defs><path class="cls-1" d="M51.91,94.83c-1.79,0-2.83,1.7-2.83,4s1.07,3.92,2.85,3.92,2.82-1.71,2.82-4C54.75,96.64,53.74,94.83,51.91,94.83Z" transform="translate(-27.14 -3.53)"/><path class="cls-1" d="M94.13,62.15V28.65a25.12,25.12,0,1,0-50.24,0v33.5A16.74,16.74,0,0,0,27.14,78.89v41.87a16.75,16.75,0,0,0,16.75,16.75H94.13a16.75,16.75,0,0,0,16.75-16.75V78.89A16.74,16.74,0,0,0,94.13,62.15ZM52.26,28.65a16.75,16.75,0,0,1,33.5,0v33.5H52.26Zm-6.35,76H38.58V92.91h2.66v9.5h4.67Zm5.88.19c-3.48,0-5.52-2.63-5.52-6,0-3.51,2.25-6.14,5.71-6.14s5.57,2.7,5.57,5.93C57.55,102.5,55.22,104.83,51.79,104.83Zm13.5-2.21a6.59,6.59,0,0,0,2.21-.38l.4,2.07a7.64,7.64,0,0,1-3,.5c-4,0-6.14-2.52-6.14-5.86,0-4,2.85-6.23,6.4-6.23a6.77,6.77,0,0,1,2.89.53l-.54,2.1a5.68,5.68,0,0,0-2.23-.43,3.85,3.85,0,0,0,0,7.7Zm10.86,2-2.87-5.06-1,1.23v3.83H69.65V92.91h2.62V98.1h0c.26-.45.54-.87.8-1.29l2.67-3.9H79l-3.88,5,4.09,6.73Zm11.66,0H80.33V92.91h7.24v2.18H83v2.43H87.3v2.16H83v2.78h4.82ZM98,103.25a8.44,8.44,0,0,1-5.41,1.51,24.51,24.51,0,0,1-3-.17V93.07a23.41,23.41,0,0,1,3.59-.24A7.57,7.57,0,0,1,98,94.08a5.2,5.2,0,0,1,2,4.42A6,6,0,0,1,98,103.25Z" transform="translate(-27.14 -3.53)"/><path class="cls-1" d="M93.48,94.86a5.59,5.59,0,0,0-1.2.11v7.67a5.21,5.21,0,0,0,.93,0c2.4,0,4-1.3,4-4.11A3.36,3.36,0,0,0,93.48,94.86Z" transform="translate(-27.14 -3.53)"/></svg>