<svg id="Layer_1" data-name="Layer 1" xmlns="http://www.w3.org/2000/svg" xmlns:xlink="http://www.w3.org/1999/xlink" viewBox="0 0 921.13 231.32"><defs><style>.cls-1{fill:#fff;}.cls-2{fill:#03bfec;}.cls-3{fill:url(#linear-gradient);}.cls-4{fill:url(#linear-gradient-2);}.cls-5{fill:url(#linear-gradient-3);}.cls-6{fill:url(#linear-gradient-4);}.cls-7{fill:url(#linear-gradient-5);}.cls-8{fill:url(#linear-gradient-6);}</style><linearGradient id="linear-gradient" x1="199.48" y1="79.83" x2="97.82" y2="328.56" gradientUnits="userSpaceOnUse"><stop offset="0" stop-color="#00bdf0"/><stop offset="1" stop-color="#172ab4"/></linearGradient><linearGradient id="linear-gradient-2" x1="207.47" y1="83.1" x2="105.81" y2="331.82" xlink:href="#linear-gradient"/><linearGradient id="linear-gradient-3" x1="215.47" y1="86.37" x2="113.81" y2="335.09" xlink:href="#linear-gradient"/><linearGradient id="linear-gradient-4" x1="223.46" y1="89.64" x2="121.81" y2="338.36" xlink:href="#linear-gradient"/><linearGradient id="linear-gradient-5" x1="231.46" y1="92.91" x2="129.8" y2="341.63" xlink:href="#linear-gradient"/><linearGradient id="linear-gradient-6" x1="239.46" y1="96.18" x2="137.8" y2="344.9" xlink:href="#linear-gradient"/></defs><path class="cls-1" d="M342,135.83H309.4V116.6h88.83v19.23H365.61v82.72H342Z" transform="translate(-48.43 -50.74)"/><path class="cls-1" d="M500.76,218.55l-.14-61.17-30,50.39H460l-29.85-49.08v59.86H408v-102h19.52L465.66,180l37.58-63.36h19.37l.29,102Z" transform="translate(-48.43 -50.74)"/><path class="cls-1" d="M607.22,166h21.56v41.36c-11.22,8.45-26.65,13-41.22,13-32,0-55.63-22-55.63-52.72s23.59-52.72,56.07-52.72c17.91,0,32.77,6.11,42.67,17.62l-15.15,14c-7.42-7.87-16-11.51-26.36-11.51-19.8,0-33.35,13.26-33.35,32.63,0,19.07,13.55,32.62,33.06,32.62a37.49,37.49,0,0,0,18.35-4.37Z" transform="translate(-48.43 -50.74)"/><path class="cls-2" d="M644.94,177.19c0-24.47,19.23-42.53,44.86-42.53,14.13,0,25.05,4.23,32.62,13l-9,9.18a30.21,30.21,0,0,0-23.15-9.9c-17.92,0-31,12.67-31,30.29,0,17.47,13.1,30.29,31,30.29a30.35,30.35,0,0,0,23.15-10l9,9.18c-7.72,8.88-18.64,13.1-32.62,13.1C664.17,219.71,644.94,201.66,644.94,177.19Z" transform="translate(-48.43 -50.74)"/><path class="cls-2" d="M722.71,177.19c0-24.47,19.23-42.53,45-42.53s45,18.06,45,42.53-19.08,42.52-45,42.52S722.71,201.66,722.71,177.19Zm75.73,0c0-17.62-13.1-30.29-30.72-30.29S737,159.57,737,177.19s13.1,30.29,30.73,30.29S798.44,194.81,798.44,177.19Z" transform="translate(-48.43 -50.74)"/><path class="cls-2" d="M874.56,192.18c11.5-4.37,18.2-13.62,18.2-26.43,0-18.5-13.69-29.35-35.39-29.35H823v83h16V194.9h0V183.33h0V150.4h17.5c14.42,0,22,5.79,22,17s-7.57,17-22,17h-3.87l8.31,11c.07,0,.15-.21.22-.22l12.51,17.18L879,219.4h15.2Z" transform="translate(-48.43 -50.74)"/><path class="cls-2" d="M969.57,206.75v11.8h-62V135.83H968v11.65H921.65v23.3h41.22v11.51H921.65v24.46Z" transform="translate(-48.43 -50.74)"/><path class="cls-3" d="M164.09,282.06a115.32,115.32,0,1,1,45-9.09A115,115,0,0,1,164.09,282.06Zm0-218.23A102.57,102.57,0,1,0,266.66,166.4,102.68,102.68,0,0,0,164.09,63.83Z" transform="translate(-48.43 -50.74)"/><path class="cls-4" d="M173.43,270.36a103.66,103.66,0,1,1,40.46-8.17A103.34,103.34,0,0,1,173.43,270.36Zm0-196.63A92.67,92.67,0,1,0,266.1,166.4,92.78,92.78,0,0,0,173.43,73.73Z" transform="translate(-48.43 -50.74)"/><path class="cls-5" d="M182.76,258.67a92.06,92.06,0,1,1,35.91-7.26A91.57,91.57,0,0,1,182.76,258.67Zm0-175a82.78,82.78,0,1,0,82.78,82.78A82.87,82.87,0,0,0,182.76,83.62Z" transform="translate(-48.43 -50.74)"/><path class="cls-6" d="M192.09,247a80.4,80.4,0,1,1,31.36-6.34A79.93,79.93,0,0,1,192.09,247Zm0-153.45A72.88,72.88,0,1,0,265,166.4,73,73,0,0,0,192.09,93.52Z" transform="translate(-48.43 -50.74)"/><path class="cls-7" d="M201.42,235.27a68.86,68.86,0,1,1,48.7-20.17A68.39,68.39,0,0,1,201.42,235.27Zm0-131.86a63,63,0,1,0,63,63A63.06,63.06,0,0,0,201.42,103.41Z" transform="translate(-48.43 -50.74)"/><path class="cls-8" d="M210.75,223.57a57.17,57.17,0,1,1,40.43-16.74A56.82,56.82,0,0,1,210.75,223.57Zm0-110.26a53.09,53.09,0,1,0,53.1,53.09A53.16,53.16,0,0,0,210.75,113.31Z" transform="translate(-48.43 -50.74)"/></svg>